<?xml version="1.0" encoding="utf-8"?>
<!-- Generator: Adobe Illustrator 17.0.0, SVG Export Plug-In . SVG Version: 6.00 Build 0)  -->
<!DOCTYPE svg PUBLIC "-//W3C//DTD SVG 1.1//EN" "http://www.w3.org/Graphics/SVG/1.1/DTD/svg11.dtd">
<svg version="1.1" id="Calque_1" xmlns="http://www.w3.org/2000/svg" xmlns:xlink="http://www.w3.org/1999/xlink" x="0px" y="0px"
	 width="1250px" height="650px" viewBox="0 0 1250 650" enable-background="new 0 0 1250 650" xml:space="preserve">
<g>
	<rect y="-0.092" fill="#FFFFFF" width="1250" height="650.092"/>
</g>
<path fill="#C6F4FF" d="M0,650h470.938c103.485-73.472,168.146-177.852,168.146-293.668c0-154.737-115.406-289.067-284.658-356.516
	H0V650z"/>
<circle fill="#F3FEFF" cx="305.487" cy="332.586" r="50.974"/>
<path opacity="0.54" fill="#FFFFFF" enable-background="new    " d="M0,356.968c21.012,12.567,45.584,19.796,71.847,19.796
	c77.423,0,140.187-62.764,140.187-140.187S149.27,96.39,71.847,96.39c-26.263,0-50.835,7.229-71.847,19.796V356.968z"/>
<circle opacity="0.3" fill="#F3FEFF" enable-background="new    " cx="429.525" cy="194.955" r="88.356"/>
<circle opacity="0.48" fill="#F3FEFF" enable-background="new    " cx="264.707" cy="113.396" r="50.974"/>
<circle opacity="0.73" fill="#F3FEFF" enable-background="new    " cx="397.241" cy="288.408" r="32.284"/>
<circle opacity="0.3" fill="#F3FEFF" enable-background="new    " cx="568.003" cy="561.644" r="88.356"/>
</svg>
